<svg width="580" height="400" xmlns="http://www.w3.org/2000/svg">
  <ellipse ry="100" rx="100" id="svg_1" cy="100" cx="100" stroke-width="0" stroke="#000" fill="#9e9e9e"/>
  <ellipse ry="0.5" id="svg_2" cy="131" cx="647.5" stroke-width="0" stroke="#0f0f00" fill="#eeeeee"/>
  <path id="svg_3" d="m2.5,122.5l196.5,-2.5l-196.5,2.5z" stroke-opacity="null" stroke-width="0" stroke="#000" fill="#9e9e9e"/>
  <ellipse ry="45" rx="45" id="svg_4" cy="93" cx="100" stroke-opacity="null" stroke-width="0" stroke="#000" fill="#eeeeee"/>
  <ellipse stroke="#000" ry="42.270267" rx="58.499998" id="svg_5" cy="179.270268" cx="100" stroke-opacity="null" stroke-width="0" fill="#eeeeee"/>
  <path id="svg_9" d="m205.5,207.5l-24.5,-16.5" opacity="0.5" stroke-opacity="null" stroke-width="0" stroke="#000" fill="#eeeeee"/>
  <path id="svg_10" d="m120.5,185.5" opacity="0.5" stroke-opacity="null" stroke-width="0" stroke="#000" fill="#eeeeee"/>
  <path stroke="#000" id="svg_12" d="m-97.222502,100.762517l0,0c0,-109.35238 88.647659,-198.000018 198.000066,-198.000018l0,0c52.51286,0 102.874974,20.860644 140.007162,57.99285c37.132228,37.132219 57.992904,87.494281 57.992904,140.007168l0,0c0,109.352367 -88.647659,198.000018 -198.000066,198.000018l0,0c-109.352394,0 -198.000066,-88.647651 -198.000066,-198.000018zm99.000033,0l0,0c0,54.676177 44.323856,99.000009 99.000033,99.000009c54.676217,0 99.000033,-44.323832 99.000033,-99.000009c0,-54.676177 -44.323843,-99.000009 -99.000033,-99.000009l0,0c-54.676177,0 -99.000033,44.323846 -99.000033,99.000009z" stroke-opacity="null" stroke-width="0" fill="#ffffff"/>
</svg> 